<svg enable-background="new 0 0 64 64" height="64" viewBox="0 0 64 64" width="64" xmlns="http://www.w3.org/2000/svg"><g fill="#1d1d1b"><path d="m63.81 19.912c-.104-.246-.254-.469-.438-.656-.006-.005-.008-.012-.014-.018l-7.157-7.129c-.814-.812-2.135-.812-2.952 0-.812.812-.812 2.129 0 2.939l3.597 3.581-16.873.001c-.555 0-1.083.219-1.478.609l-22.246 22.165h-14.192c-1.151 0-2.085.93-2.085 2.078s.934 2.08 2.085 2.08h15.055c.555 0 1.085-.22 1.477-.609l22.25-22.164 16.008-.002-3.441 3.428c-.813.812-.813 2.128 0 2.939.409.406.943.609 1.477.609.535 0 1.067-.203 1.477-.609l6.999-6.975c.195-.191.347-.422.453-.678.105-.254.162-.523.162-.793-.002-.27-.059-.54-.164-.796z"/><path d="m2.057 22.787h14.192l6.124 6.102c.406.406.939.609 1.474.609.533 0 1.069-.203 1.476-.609.815-.811.815-2.128 0-2.939l-6.734-6.711c-.392-.39-.922-.608-1.477-.608h-15.055c-1.151 0-2.085.931-2.085 2.079s.933 2.077 2.085 2.077z"/><path d="m63.81 42.689c-.106-.256-.258-.486-.453-.678l-6.999-6.975c-.815-.812-2.137-.812-2.953 0-.813.812-.813 2.127 0 2.939l3.441 3.428-16.008-.002-6.04-6.015c-.815-.812-2.136-.812-2.951 0-.816.812-.816 2.129 0 2.94l6.648 6.623c.395.391.923.609 1.478.609l16.873.002-3.597 3.579c-.812.812-.812 2.128 0 2.94.408.406.942.608 1.479.608.53 0 1.067-.202 1.473-.608l7.157-7.129c.006-.006.008-.013.014-.018.184-.188.333-.41.438-.656.105-.256.162-.525.162-.797 0-.266-.057-.536-.162-.79z"/></g></svg>